<svg height="100%" width="100%" viewBox="0 0 540 508" xmlns="http://www.w3.org/2000/svg"><g xmlns="http://www.w3.org/2000/svg" fill="#5984d6" id="shape-svg"><title>graphic 2</title><g id="Слой_2" data-name="Слой 2"><g id="Слой_1-2" data-name="Слой 1"><path transform="translate(143.15, 64.5) scale(0.7,0.7)" d="M321,104.6C287.51,60.72,183.06,21,177.85,19v-.08l-.11,0-.11,0V19C172.41,21,68,60.72,34.52,104.6c0,0-12.8,14.84-16.16,25.91s-4.65,17.23-4.65,61.88c0,28.56,0,108,.08,161.48v-1.14h327.9v3.5H13.79c0,28.91,0,49.7,0,49.7a61.44,61.44,0,0,0,2,10.8H339.62a61,61,0,0,0,2-10.8s.11-168.89.11-213.54-1.29-50.8-4.65-61.88S321,104.6,321,104.6Z"></path><path transform="translate(143.15, 64.5) scale(0.7,0.7)" d="M352.87,119.11c-3.67-11.83-17.64-27.66-17.64-27.66C298.74,44.61,184.78,2.19,179.09.09V0L179,0l-.12,0V.09C173.16,2.19,59.2,44.61,22.7,91.45c0,0-14,15.83-17.63,27.66S0,137.5,0,185.15.12,413.07.12,413.07s1.56,24.24,21.4,47.57S77.57,507,99,517.78l79.51,32.1v.4l.5-.2.49.2v-.4L259,517.78c21.39-10.76,57.59-33.8,77.44-57.14s21.4-47.57,21.4-47.57.12-180.26.12-227.92S356.53,130.94,352.87,119.11Zm-7.21,286.82c0,.08,0,.16,0,.25-.06,1-1.73,24.27-20.53,46.88-17.37,20.88-49.61,42.9-72.22,54.53l-.31.14-71.5,29.51a4.58,4.58,0,0,1-.67.57,4.07,4.07,0,0,1-2.23.67,5.07,5.07,0,0,0-.9,0,3.93,3.93,0,0,1-2.9-1.24l-71.51-29.51-.3-.14C80,496,47.73,473.94,30.36,453.06c-18.81-22.61-20.47-45.9-20.53-46.88a2.18,2.18,0,0,1,0-.25c0-1.69-.11-169.4-.11-213.54,0-45.35,1.39-51.74,4.82-63s15.65-25.84,16.88-27.27c14.33-18.75,42.4-38.79,83.44-59.57,29.3-14.83,55.34-24.95,60.65-27a4,4,0,0,1,2.13-.61h.22a4,4,0,0,1,2.12.61c5.32,2,31.35,12.15,60.65,27,41,20.78,69.12,40.82,83.45,59.57,1.22,1.42,13.42,15.87,16.88,27.27s4.82,17.69,4.82,63C345.77,236.53,345.66,404.24,345.66,405.93Z"></path><path transform="translate(143.15, 64.5) scale(0.7,0.7)" d="M33.43,450.5C51.62,472.37,84.8,494,104.41,504l72.88,30.08v.37l.45-.18.45.18v-.37L251.07,504c19.6-10.08,52.78-31.66,71-53.53a89.55,89.55,0,0,0,16.56-30.27H16.87A89.9,89.9,0,0,0,33.43,450.5Zm261-7.72c3,0,3.55,4.24,0,4.24C291.45,447,290.89,442.78,294.46,442.78Zm-233.7,0c3,0,3.55,4.24,0,4.24C57.75,447,57.19,442.78,60.76,442.78Z"></path></g></g></g><g xmlns="http://www.w3.org/2000/svg" fill="#ffffff" id="icon-svg">
	<path transform="translate(181, 124) scale(0.9,0.9)" d="M 50 20.599 C 50 31.374, 50.376 35.827, 51.464 37.931 C 53.185 41.258, 58.540 46, 60.577 46 C 61.682 46, 62 47.686, 62 53.545 C 62 60.223, 62.282 61.373, 64.455 63.545 C 65.805 64.895, 67.380 66, 67.955 66 C 68.582 66, 69 68.786, 69 72.962 C 69 81.781, 71.915 89.867, 77.135 95.531 C 80.917 99.634, 80.998 99.882, 80.923 107.112 C 80.881 111.175, 80.309 116.282, 79.652 118.460 L 78.459 122.419 59.699 127.537 C 42.269 132.291, 40.658 132.928, 36.978 136.522 C 34.799 138.649, 32.346 142.215, 31.526 144.445 C 30.147 148.195, 26 182.828, 26 190.594 L 26 194 100 194 L 174 194 174 191.220 C 174 183.629, 169.791 147.985, 168.474 144.423 C 166.838 139.998, 162.144 134.643, 158.042 132.522 C 156.623 131.788, 148.142 129.271, 139.196 126.928 C 130.249 124.585, 122.254 122.175, 121.428 121.571 C 120.461 120.864, 119.513 117.191, 118.763 111.245 C 117.636 102.316, 117.670 101.926, 119.827 99.258 C 127.833 89.350, 131 81.574, 131 71.818 C 131 68.606, 131.448 66, 132 66 C 132.550 66, 133.900 65.100, 135 64 C 136.821 62.179, 136.999 60.678, 136.985 47.250 C 136.976 39.137, 136.639 32.012, 136.235 31.415 C 135.831 30.818, 134.622 29.849, 133.548 29.262 C 132.453 28.663, 131.137 26.328, 130.548 23.941 C 129.879 21.224, 128.481 18.931, 126.679 17.594 C 123.990 15.599, 122.468 15.485, 94.342 15.182 L 64.826 14.863 57.413 10.480 L 50 6.098 50 20.599 M 75 61.868 C 75 81.591, 76.121 85.247, 84.804 93.845 C 97.264 106.185, 103.141 106.056, 115.967 93.163 C 123.898 85.191, 125.142 80.786, 124.779 61.955 L 124.500 47.500 99.750 47.233 L 75 46.965 75 61.868 M 87.988 109.724 C 87.982 111.801, 87.320 115.967, 86.517 118.982 L 85.058 124.465 88.279 127.818 C 96.236 136.101, 103.793 136.106, 111.681 127.835 L 114.862 124.500 113.431 119.032 C 112.644 116.025, 112 111.851, 112 109.756 L 112 105.949 108.750 107.636 C 106.854 108.620, 103.209 109.323, 100 109.323 C 96.791 109.323, 93.146 108.620, 91.250 107.636 L 88 105.949 87.988 109.724 M 120.500 145.208 C 117.007 147.211, 116.064 149.348, 116.032 155.337 C 116.002 160.892, 115.855 161.228, 113 162.306 C 110.657 163.190, 110 164.048, 110 166.219 C 110 168.486, 110.443 169, 112.393 169 C 115.284 169, 116 170.613, 116 177.127 C 116 183.426, 119.060 187, 124.455 187 C 127.709 187, 128 186.760, 128 184.066 C 128 181.610, 127.553 181.081, 125.250 180.816 C 122.686 180.521, 122.466 180.121, 122 174.904 C 121.725 171.826, 120.906 168.592, 120.181 167.718 C 119.100 166.415, 119.094 165.709, 120.150 163.814 C 120.858 162.541, 121.677 159.025, 121.969 156 C 122.462 150.897, 122.698 150.477, 125.250 150.184 C 127.553 149.919, 128 149.390, 128 146.934 C 128 144.393, 127.632 144.004, 125.250 144.030 C 123.737 144.047, 121.600 144.577, 120.500 145.208 M 135 147 C 135 149.222, 135.467 150, 136.800 150 C 139.729 150, 141 152.111, 141 156.977 C 141 159.495, 141.630 162.454, 142.400 163.554 C 143.600 165.267, 143.600 165.826, 142.400 167.468 C 141.630 168.521, 141 171.284, 141 173.609 C 141 179.372, 140.206 181, 137.393 181 C 135.401 181, 135 181.502, 135 184 C 135 186.654, 135.340 187, 137.944 187 C 139.580 187, 142.084 185.971, 143.579 184.685 C 145.807 182.770, 146.376 181.262, 146.885 175.935 C 147.468 169.835, 147.643 169.484, 150.250 169.184 C 152.522 168.922, 153 168.379, 153 166.059 C 153 163.764, 152.473 163.145, 150.120 162.674 C 147.347 162.119, 147.223 161.849, 146.814 155.414 C 146.446 149.638, 146.015 148.409, 143.638 146.365 C 142.093 145.036, 139.598 144, 137.944 144 C 135.340 144, 135 144.346, 135 147" stroke="none" fill-rule="evenodd"></path>
</g><path xmlns="http://www.w3.org/2000/svg" id="SvgjsPath48844672" d="M4.30-11.20L2.94-11.20L2.94-2.77C2.94-1.81 2.66-1.12 1.68-1.12C1.28-1.12 0.88-1.28 0.62-1.47L0.16-0.43C0.45-0.14 1.10 0.16 1.86 0.16C3.58 0.16 4.30-0.86 4.30-2.54ZM12.53-2.86C12.53-1.73 11.50-1.12 10.34-1.12C9.39-1.12 8.22-1.58 7.57-2.45L6.78-1.52C7.34-0.46 8.94 0.16 10.32 0.16C12.35 0.16 13.97-1.04 13.97-2.88C13.97-6.70 8.50-5.66 8.50-8.43C8.50-9.42 9.26-10.08 10.51-10.08C11.49-10.08 12.19-9.76 12.78-9.17L13.52-10.19C12.88-10.90 11.73-11.36 10.43-11.36C8.30-11.36 7.06-10.05 7.06-8.43C7.06-4.72 12.53-5.60 12.53-2.86ZM27.71 0L29.31 0L27.44-2.38C28.34-3.66 28.85-5.42 28.85-7.20L27.58-7.20C27.58-5.68 27.20-4.37 26.66-3.41L23.94-6.91C24.85-7.09 25.60-8 25.60-9.04C25.60-10.43 24.43-11.36 23.12-11.36C21.82-11.36 20.66-10.43 20.66-9.04C20.66-7.97 21.28-7.22 22.14-6.93C20.82-6.03 19.49-4.91 19.49-3.04C19.49-1.18 20.98 0.16 23.10 0.16C24.77 0.16 25.84-0.56 26.54-1.47ZM23.14-1.12C21.95-1.12 20.93-2.02 20.93-3.30C20.93-4.43 21.79-5.30 22.96-6.18L25.76-2.50C25.20-1.66 24.34-1.12 23.14-1.12ZM21.86-9.04C21.86-9.76 22.42-10.32 23.12-10.32C23.82-10.32 24.40-9.74 24.40-9.04C24.40-8.35 23.84-7.78 23.12-7.78C22.42-7.78 21.86-8.35 21.86-9.04ZM34.03-9.92L37.95-9.92L37.95 0L39.31 0L39.31-9.92L43.23-9.92L43.23-11.20L34.03-11.20ZM49.94-2.86C49.94-1.73 48.91-1.12 47.74-1.12C46.80-1.12 45.63-1.58 44.98-2.45L44.19-1.52C44.75-0.46 46.35 0.16 47.73 0.16C49.76 0.16 51.38-1.04 51.38-2.88C51.38-6.70 45.90-5.66 45.90-8.43C45.90-9.42 46.67-10.08 47.92-10.08C48.90-10.08 49.60-9.76 50.19-9.17L50.93-10.19C50.29-10.90 49.14-11.36 47.84-11.36C45.71-11.36 44.46-10.05 44.46-8.43C44.46-4.72 49.94-5.60 49.94-2.86ZM57.78 0L59.06 0L59.06-11.20L57.78-11.20ZM66.34 0L67.70 0L67.70-9.01L71.71-3.49L71.92-3.49L75.89-9.06L75.89 0L77.25 0L77.25-11.20L75.95-11.20L71.92-5.46L67.71-11.20L66.34-11.20ZM80.46-5.68C81.04-5.98 81.57-6.21 82.45-6.21C83.87-6.21 84.08-5.28 84.08-3.94C83.60-4.29 82.85-4.40 82.29-4.40C80.74-4.40 79.57-3.58 79.57-2.11C79.57-0.72 80.46 0.11 81.78 0.11C82.96 0.11 83.65-0.38 84.08-0.93L84.08 0L85.30 0L85.30-4.42C85.30-6.29 84.58-7.36 82.53-7.36C81.63-7.36 80.77-7.10 80.13-6.70ZM82.22-1.04C81.39-1.04 80.93-1.49 80.93-2.18C80.93-3.01 81.70-3.36 82.46-3.36C83.09-3.36 83.63-3.20 84.08-2.88L84.08-1.97C83.71-1.54 83.17-1.04 82.22-1.04ZM91.09-1.95C91.09-1.30 90.48-0.96 89.81-0.96C89.09-0.96 88.14-1.39 87.73-1.87L87.01-0.96C87.34-0.45 88.50 0.16 89.66 0.16C91.10 0.16 92.45-0.50 92.45-2.02C92.45-4.54 88.56-3.82 88.56-5.34C88.56-5.82 88.99-6.24 89.71-6.24C90.46-6.24 91.09-5.92 91.52-5.54L92.13-6.51C91.70-6.93 90.83-7.36 89.65-7.36C88.22-7.36 87.20-6.59 87.20-5.33C87.20-2.69 91.09-3.41 91.09-1.95ZM94.16-2.74C94.16-0.90 94.80 0.13 96.42 0.13C97.22 0.13 97.87-0.16 98.26-0.48L97.86-1.47C97.60-1.28 97.22-1.07 96.72-1.07C95.81-1.07 95.44-1.73 95.44-2.86L95.44-6L98.08-6L98.08-7.20L95.44-7.20L95.44-9.20L94.16-9.20ZM105.36-1.79C104.90-1.36 104.08-1.04 103.15-1.04C101.74-1.04 100.75-1.84 100.64-3.20L106.18-3.20C106.22-3.42 106.26-3.71 106.26-4.06C106.26-6.05 104.77-7.36 102.91-7.36C100.54-7.36 99.20-5.70 99.20-3.60C99.20-1.33 100.72 0.16 103.06 0.16C104.02 0.16 105.06-0.14 105.76-0.78ZM102.85-6.16C104.10-6.16 104.86-5.42 104.93-4.24L100.56-4.24C100.70-5.34 101.54-6.16 102.85-6.16ZM108.00 0L109.28 0L109.28-5.10C109.55-5.63 109.95-6.13 110.78-6.13C111.22-6.13 111.41-6.06 111.76-5.86L112.21-7.06C111.97-7.23 111.68-7.33 111.09-7.33C110.18-7.33 109.65-6.90 109.28-6.35L109.28-7.20L108.00-7.20ZM119.98-7.20L118.53-7.20L116.86-2.64C116.74-2.26 116.62-1.89 116.53-1.54C116.38-1.90 116.26-2.26 116.10-2.62L113.98-7.20L112.45-7.20L115.90 0L115.74 0.38C115.26 1.54 114.82 2.02 114.21 2.02C113.92 2.02 113.65 1.89 113.41 1.78L112.99 2.75C113.38 3.01 113.81 3.20 114.35 3.20C115.38 3.20 116.05 2.58 117.10 0Z" fill="#ffffff" fontsize="16" transform="matrix(1,0,0,1,207.43,381.08)"></path><path xmlns="http://www.w3.org/2000/svg" id="SvgjsPath48844693" d="M4.56 0.09L5.16 0L5.76 0L6.32 0.04L6.97 0L7.65 0.04L8.77 0.04L10.58-0.09L11.09-0.26L11.40-0.65L11.61-1.08L11.61-3.44L11.65-4.13L11.70-4.73L11.61-5.33L11.74-5.89L11.61-6.54L11.70-7.05L11.74-7.65L11.70-8.30L11.70-8.90L11.61-9.50L11.61-10.71L11.65-11.27L11.74-11.91L11.65-12.60L11.70-13.16L11.65-13.67L11.65-14.32L11.74-14.88L11.70-15.61L11.74-16.08L11.61-16.77L11.61-18.02L11.74-18.49L11.61-19.22L11.65-19.69L11.61-20.38L11.61-21.54L11.70-22.19L11.74-22.70L11.70-23.31L11.65-23.95L11.65-25.11L11.61-25.76L11.70-26.36L11.74-27.00L11.61-27.61L11.74-28.12L11.61-29.28L11.40-29.89L11.14-30.23L10.45-30.53L9.33-30.53L8.73-30.44L8.21-30.57L7.57-30.44L6.97-30.53L6.32-30.53L5.81-30.44L5.25-30.44L4.60-30.53L4.08-30.49L2.80-30.49L2.28-30.27L1.94-29.89L1.76-29.33L1.68-28.21L1.63-27.61L1.63-26.96L1.76-26.45L1.68-25.71L1.76-25.20L1.72-24.64L1.63-23.91L1.76-23.44L1.63-22.75L1.68-22.23L1.72-21.54L1.68-20.90L1.72-20.30L1.68-19.69L1.68-19.22L1.72-18.58L1.68-17.97L1.76-17.29L1.68-16.68L1.63-16.08L1.72-15.57L1.76-14.96L1.72-14.41L1.68-13.80L1.63-13.16L1.72-12.56L1.76-11.87L1.72-11.31L1.63-10.66L1.68-10.11L1.76-9.59L1.76-8.86L1.72-8.39L1.68-7.78L1.76-7.10L1.63-6.54L1.63-5.33L1.72-4.73L1.68-4.13L1.63-3.44L1.68-2.84L1.63-2.37L1.72-1.08L1.98-0.65L2.28-0.22L2.88 0L4.00 0ZM5.98-28.34L5.63-28.42L5.20-28.68L5.07-28.55L4.86-28.68L4.99-28.77L5.20-29.03L5.42-29.03L5.63-28.90L5.76-28.77L6.11-28.68L6.54-28.77L6.67-28.68L6.54-28.34ZM4.04-28.55L3.96-28.77L4.17-28.77L4.17-28.68ZM7.22-28.34L7.14-28.42L7.35-28.42L7.48-28.34ZM4.86 1.98L6.32 2.11L6.97 1.98L7.44 1.98L7.96 2.06L8.43 2.02L9.37 2.02L10.41 2.11L10.84 1.98L11.78 2.02L12.34 1.85L12.73 1.76L13.24 1.42L13.42 0.99L13.59 0.43L13.55-0.04L13.63-1.03L13.59-1.55L13.63-2.19L13.67-2.71L13.63-3.14L13.63-3.74L13.67-4.13L13.59-4.77L13.72-5.12L13.59-5.72L13.59-6.15L13.67-6.67L13.67-7.18L13.63-7.70L13.67-8.26L13.67-8.86L13.63-9.33L13.72-9.89L13.67-10.36L13.67-10.92L13.72-11.44L13.72-11.87L13.59-12.47L13.63-12.99L13.72-13.42L13.63-13.98L13.67-14.49L13.59-14.88L13.72-15.44L13.59-15.95L13.67-16.51L13.59-16.94L13.63-17.46L13.72-18.10L13.67-18.53L13.67-19.05L13.59-19.57L13.67-20.04L13.59-20.68L13.59-21.07L13.63-21.63L13.72-22.23L13.63-22.70L13.72-23.09L13.59-23.74L13.67-24.25L13.67-24.73L13.72-25.28L13.67-25.76L13.67-27.31L13.42-27.95L13.07-28.21L12.47-28.21L12.60-27.31L12.56-26.79L12.51-26.36L12.60-25.84L12.51-25.37L12.60-24.85L12.51-23.74L12.60-23.22L12.60-22.79L12.56-22.23L12.56-21.72L12.51-21.16L12.47-20.81L12.47-20.17L12.56-19.78L12.47-19.14L12.47-18.71L12.56-18.23L12.47-17.59L12.56-17.20L12.56-16.55L12.47-16.21L12.47-15.57L12.60-15.18L12.56-14.58L12.47-14.02L12.56-13.55L12.47-13.07L12.51-12.47L12.60-12.13L12.47-11.61L12.60-10.97L12.51-10.54L12.60-10.02L12.51-8.90L12.51-8.47L12.60-7.91L12.56-7.48L12.47-6.88L12.60-6.36L12.47-5.89L12.56-5.38L12.60-4.95L12.51-4.39L12.56-3.83L12.56-3.31L12.51-2.92L12.60-2.32L12.51-1.81L12.56-1.38L12.47-0.26L12.38 0.22L12.34 0.65L11.78 0.77L11.35 0.90L10.32 0.86L9.85 0.99L9.25 0.90L8.86 0.90L8.26 0.95L7.87 0.90L7.35 0.95L6.32 0.86L5.72 0.99L5.29 0.95L4.73 0.86L4.00 0.90L3.91 1.51L4.21 1.85ZM8.13-27.65L8.04-27.78L8.04-27.99L8.13-28.08L8.60-28.21L8.82-28.08L8.94-27.99L8.82-27.78L8.60-27.86L8.26-27.86ZM6.67-27.52L6.54-27.78L6.54-28.08L6.88-27.99L6.88-27.78ZM5.55-26.75L5.29-26.83L5.20-26.96L5.07-27.18L4.99-27.43L4.99-27.65L5.07-27.78L5.29-27.52L5.42-27.31L5.55-27.18L5.63-26.96ZM2.92-27.09L2.92-27.43L3.14-27.52L3.27-27.52L3.40-27.31L3.27-27.09ZM4.04-25.84L3.70-26.06L3.48-26.19L3.40-26.27L3.40-26.53L3.61-26.53L3.83-26.83L3.70-27.18L4.04-27.18L4.17-27.09L4.17-26.19ZM7.01-26.96L7.01-27.18L7.22-27.09L7.14-26.96ZM7.01-25.93L6.79-26.19L6.54-26.27L6.45-26.40L6.32-26.62L6.24-26.83L6.24-27.09L6.32-27.09L6.45-26.83L6.54-26.75L6.67-26.53L6.88-26.53L7.14-26.19L7.14-25.93ZM9.50-26.62L9.16-26.75L9.37-26.96ZM7.91-26.40L7.83-26.53L7.91-26.62L8.04-26.40ZM6.67-25.03L6.79-25.24L7.14-25.50L7.22-25.24L6.88-25.03ZM3.96-24.94L3.83-25.03L4.04-25.16L4.30-25.24L4.39-25.37L4.73-25.37L4.86-25.24L4.99-25.16L4.86-25.03L4.39-25.03L4.17-24.94ZM8.47-23.99L8.39-24.12L8.47-24.25ZM3.96-23.01L3.70-23.09L3.83-23.35L3.96-23.56L3.83-23.78L4.04-24.12L4.17-23.99L4.17-23.78L4.30-23.56L4.04-23.09ZM7.22-22.88L7.01-23.01L6.67-23.35L6.54-23.69L6.88-23.69L7.01-23.44L7.22-23.22L7.35-23.22L7.57-23.01ZM4.64-22.53L4.39-22.66L4.73-23.01L4.73-22.66ZM5.63-22.32L5.42-22.40L5.55-22.53L5.63-22.75L5.98-22.75L5.89-22.32ZM7.70-21.84L7.48-21.97L7.57-22.32L7.83-22.40L8.04-22.40L8.13-22.32L8.04-22.10L7.91-21.97ZM9.50-21.41L9.37-21.63L9.37-21.84L9.63-22.10L9.72-21.76L9.63-21.50ZM4.64-20.60L4.39-20.73L4.30-21.07L4.30-21.41L4.04-21.50L3.96-21.76L4.30-21.97L4.39-21.84L4.64-21.76L4.86-21.76L4.86-21.50L4.64-21.16L4.64-20.94L4.73-20.73ZM7.57-20.94L7.22-21.07L7.14-21.16L7.01-21.41L6.88-21.50L6.79-21.76L6.88-21.97L7.14-21.76L7.22-21.63L7.48-21.41L7.57-21.16ZM10.06-21.63L9.98-21.76L10.19-21.76ZM8.13-20.60L7.91-20.73L8.04-20.94L8.13-21.29L8.04-21.41L8.26-21.50L8.47-21.29L8.73-21.16L8.82-21.07L8.94-20.86L8.73-20.86L8.26-20.73ZM7.35-19.82L7.14-20.04L6.88-20.04L6.67-20.17L6.45-19.91L6.32-20.04L6.54-20.38L6.24-20.73L5.98-20.86L5.76-20.94L5.63-21.16L5.89-21.29L6.11-21.16L6.45-21.16L6.45-20.94L6.79-20.60L7.01-20.51L7.22-20.38L7.35-20.17L7.48-19.91ZM3.40-20.86L3.40-20.94L3.61-21.07L3.61-20.86ZM5.63-20.04L5.42-20.17L5.29-20.38L5.29-20.86L5.42-20.94L5.76-20.25ZM8.26-19.82L8.47-20.04L8.73-20.17L8.94-20.25L9.29-20.25L9.50-20.17L9.63-19.91L9.29-19.82ZM9.85-18.92L9.63-19.01L9.50-19.26L9.50-19.48L9.72-19.57L9.98-19.57L10.06-19.35ZM3.70-19.01L3.70-19.26L3.96-19.26L4.17-19.35L4.39-19.35L4.30-19.14L4.17-19.01ZM6.67-17.33L6.54-17.54L6.45-17.67L6.32-17.89L6.24-18.02L6.45-18.32L6.54-18.58L6.67-18.92L7.14-18.92L7.22-19.14L7.48-19.01L7.48-18.79L7.35-18.58L7.14-18.45L6.88-18.45L6.67-18.23L6.88-17.89L7.14-17.54L7.01-17.33ZM4.17-17.42L3.96-17.54L3.96-18.02L4.04-18.23L4.04-18.45L4.30-18.58L4.39-18.45L4.30-18.23L4.30-17.67ZM3.14-17.76L2.92-18.02L3.14-18.10L3.40-18.02ZM9.37-16.64L9.29-16.73L9.29-16.99L9.07-17.33L8.94-17.42L9.16-17.54L9.16-17.42L9.50-16.73ZM10.19-16.73L9.98-16.86L9.98-17.07L10.32-16.99ZM8.26-16.08L8.13-16.17L8.47-16.73L8.60-16.86L8.82-16.43L8.60-16.17ZM5.07-15.48L5.07-15.74L5.20-15.95L5.55-16.08L5.76-15.95L5.63-15.61L5.42-15.48ZM7.35-15.82L7.14-15.95L7.35-16.08L7.48-15.95ZM4.04-14.15L4.04-14.49L4.17-14.71L4.30-14.84L4.39-15.05L4.52-15.27L4.64-15.27L4.64-14.71L4.52-14.49L4.39-14.36ZM7.70-13.67L7.57-13.89L7.48-14.15L7.48-14.23L7.57-14.49L7.83-14.36L8.13-14.49L8.13-14.92L7.91-15.27L8.04-15.27L8.39-14.92L8.39-14.58L8.26-14.23L7.91-14.02L7.91-13.80ZM7.14-14.71L6.79-14.84L6.79-15.05L6.88-15.18L7.14-14.92ZM8.94-14.71L9.07-14.92L9.16-14.71ZM6.11-14.23L5.98-14.36L6.11-14.58L6.24-14.49L6.32-14.23ZM5.98-12.90L5.98-13.12L6.24-13.33L6.45-13.46L6.79-13.80L7.01-13.46L6.67-13.12L6.45-12.99L6.24-12.90ZM8.94-13.24L9.16-13.59L9.37-13.59L9.37-13.33L9.16-13.24ZM4.64-12.99L4.64-13.33L4.73-13.33L4.86-12.99ZM5.42-12.00L5.20-12.21L5.07-12.43L5.07-12.90L5.29-12.90L5.29-12.64L5.42-12.43L5.63-12.34L5.63-12.00ZM7.57-12.34L7.57-12.64L7.83-12.43ZM8.73-11.40L8.60-11.65L8.60-12.00L8.82-12.34L9.07-12.08L8.94-11.87L8.94-11.65L8.82-11.40ZM3.48-11.87L3.61-12.21L3.83-12.08L3.83-11.87ZM9.63-11.40L9.50-11.52L9.63-11.74L9.85-11.87L9.98-12.08L10.19-12.08L10.32-11.87L10.32-11.65L10.19-11.52L9.98-11.52L9.85-11.40ZM6.24-11.40L5.98-11.52L5.98-11.74L6.32-11.65ZM5.07-9.72L4.86-9.80L4.99-10.06L5.07-10.28L5.20-10.49L4.99-10.84L4.73-11.05L4.86-11.31L5.07-11.18L5.20-10.84L5.29-10.62L5.42-10.41L5.29-10.06L5.20-9.80ZM7.91-11.05L8.04-11.31L8.13-11.31L8.13-11.05ZM4.39-10.41L4.17-10.49L4.04-10.84L4.39-10.84L4.52-10.62ZM9.98-9.50L9.85-9.59L9.72-9.80L9.63-10.06L9.50-10.41L9.50-10.62L9.63-10.84L10.06-10.84L9.98-10.62L10.41-9.93L10.41-9.72L10.32-9.50ZM7.22-9.50L7.14-9.59L7.14-9.80L7.01-10.06L7.01-10.49L7.14-10.62L7.35-10.41L7.35-9.50ZM6.24-10.28L6.32-10.49L6.54-10.41L6.45-10.28ZM4.52-8.90L4.17-9.03L4.17-9.50L4.30-9.59L3.83-9.80L3.70-9.59L3.61-9.37L3.27-9.59L3.40-9.72L3.70-9.93L3.96-9.93L4.30-9.80L4.52-9.59L4.64-9.16ZM9.37-9.50L9.16-9.59L9.07-9.72L9.16-9.93L9.50-9.59ZM9.50-8.47L9.29-8.56L9.07-8.69L8.94-8.90L8.94-9.16L9.16-9.25L9.50-9.16L9.85-8.82L9.98-8.56L9.72-8.47ZM7.70-8.47L7.70-8.82L7.91-9.03L8.13-8.69L8.04-8.47ZM2.92-8.34L3.05-8.69L3.14-8.82L3.27-8.82L3.14-8.56ZM6.54-7.78L6.54-8.00L6.32-8.21L6.11-8.13L5.98-8.21L6.11-8.47L6.24-8.56L6.45-8.47L6.67-8.13L6.79-8.00L6.79-7.78ZM9.50-7.65L9.07-7.78L8.94-7.91L9.07-8.21L9.29-8.13L9.50-8.13L9.63-7.78ZM3.27-7.65L3.05-7.78L3.05-8.00L3.40-7.91ZM4.99-7.44L4.73-7.57L4.64-7.78L4.52-7.91L4.73-8.00L4.86-7.91L5.07-7.65ZM7.48-7.31L7.48-7.44L7.57-7.57L7.70-7.31ZM8.60-5.85L8.26-6.06L8.13-6.32L8.13-7.22L8.39-7.31L8.60-7.44L8.82-7.10L8.60-7.10L8.60-6.41L8.39-6.32L8.60-6.06L8.94-6.19L9.07-6.54L9.29-6.67L9.63-6.88L9.63-7.10L9.98-6.97L9.98-6.75L9.72-6.41L9.50-6.32L9.16-5.98L8.73-5.85ZM6.45-6.67L6.32-6.75L6.54-6.97L6.79-7.10L6.88-7.31L7.01-7.31L7.01-6.97L6.88-6.75L6.67-6.67ZM10.66-6.41L10.54-6.54L10.66-6.75L10.75-6.97L10.97-6.97L10.97-6.75L10.88-6.54ZM4.30-6.32L4.04-6.41L3.83-6.54L3.70-6.67L3.48-6.75L3.48-6.88L3.83-6.88L4.17-6.75L4.39-6.54ZM6.54-5.72L6.32-5.85L6.24-5.98L6.11-6.19L6.24-6.32L6.32-6.19L6.54-6.06L6.79-6.06L7.14-6.19L7.14-6.06L6.88-5.72ZM4.64-3.91L4.39-4.04L4.17-4.39L4.64-4.73L4.86-4.95L4.86-5.16L4.99-5.38L4.99-5.63L5.07-5.85L5.29-5.85L5.29-5.63L5.42-5.38L5.42-4.95L5.29-4.73L5.20-4.47L5.20-4.26L5.07-4.04L4.86-3.91ZM9.85-5.38L9.72-5.63L9.85-5.85L10.06-5.63ZM9.98-4.60L9.72-4.73L9.50-4.73L9.29-4.82L9.07-4.95L8.94-5.07L8.94-5.29L9.37-5.29L9.85-5.16L10.19-5.16L10.32-4.95L10.19-4.73ZM6.67-4.04L6.67-4.39L6.79-4.60L7.01-5.07L7.22-5.16L7.48-5.07L7.48-4.82L7.35-4.73L7.22-4.47L6.88-4.13ZM5.89-3.91L5.63-4.04L5.76-4.26L5.89-4.39L6.11-4.04ZM8.94-4.04L8.82-4.26L9.16-4.39L9.29-4.26L9.37-4.04ZM5.29-2.80L5.20-2.88L4.86-3.14L4.64-3.14L4.39-3.23L3.83-3.23L3.70-3.35L3.96-3.48L4.17-3.48L4.64-3.57L4.73-3.48L4.99-3.35L5.20-3.23L5.29-3.01L5.42-2.88ZM7.14-3.14L7.22-3.35L7.35-3.14ZM7.91-2.88L7.91-3.23L8.13-3.35L8.39-3.23L8.26-3.01ZM9.50-3.01L9.50-3.23L9.63-3.23L9.72-3.14ZM4.73-1.89L4.52-1.98L4.52-2.24L4.64-2.32L4.99-2.24L4.86-1.98ZM18.88 0.09L19.39 0L20.00 0.04L20.60-0.04L21.24 0.09L21.93 0.04L22.58 0.09L23.09 0L23.65 0L24.38 0.09L24.98 0.09L25.46 0.04L26.10 0.04L26.70 0.09L27.95 0.09L28.51 0.04L29.24 0.09L29.89-0.04L30.36 0.09L31.09-0.04L31.61-0.04L32.29 0L32.81 0.09L34.01 0.09L35.26 0.04L35.91-0.13L36.34-0.60L36.51-1.16L36.59-2.49L36.51-3.10L36.51-3.74L36.64-4.39L36.59-4.99L36.64-5.55L36.59-6.11L36.51-7.40L36.42-8.00L35.95-8.34L35.35-8.60L34.01-8.69L33.54-8.60L32.94-8.56L32.34-8.56L31.61-8.60L31.13-8.60L30.53-8.69L29.84-8.64L29.33-8.69L28.68-8.60L28.08-8.56L27.52-8.64L26.92-8.64L26.23-8.56L25.71-8.64L25.28-8.82L25.11-9.29L25.07-9.80L25.03-10.41L25.11-11.09L25.03-12.21L25.16-12.81L25.16-13.42L25.11-14.06L25.16-14.62L25.16-15.22L25.03-15.87L25.11-16.51L25.16-17.11L25.11-17.72L25.03-18.23L25.07-18.96L25.16-20.08L25.07-20.68L25.11-21.33L25.07-21.97L25.07-22.49L25.11-23.09L25.11-23.74L25.03-24.34L25.07-24.90L25.11-25.67L25.11-26.23L25.07-26.75L25.03-27.39L25.03-27.99L25.11-29.28L24.90-29.89L24.47-30.36L23.91-30.44L22.58-30.44L22.02-30.53L21.29-30.49L20.73-30.53L20.12-30.53L19.57-30.57L18.88-30.53L18.27-30.44L17.54-30.57L16.30-30.40L15.70-30.27L15.31-29.80L15.22-29.33L15.14-28.04L15.18-27.39L15.18-26.75L15.09-26.19L15.14-25.59L15.18-24.94L15.05-24.34L15.18-23.69L15.05-23.18L15.14-22.58L15.14-21.97L15.09-21.37L15.14-20.68L15.05-20.17L15.09-19.57L15.14-18.83L15.09-18.28L15.09-17.11L15.14-16.38L15.09-15.82L15.09-15.22L15.14-14.58L15.09-14.06L15.14-13.50L15.05-12.77L15.09-12.17L15.05-11.65L15.18-10.92L15.14-10.32L15.18-9.76L15.05-9.16L15.14-8.60L15.09-7.87L15.09-7.27L15.05-6.75L15.09-6.11L15.18-5.46L15.09-4.90L15.14-4.26L15.05-3.74L15.09-3.10L15.05-2.45L15.14-1.29L15.31-0.56L15.70-0.13L16.34 0.04L18.15 0.04ZM19.14-29.15L18.79-29.37L18.79-29.58L19.01-29.71L19.35-29.50L19.35-29.24ZM21.72-25.28L21.50-25.50L21.50-26.40L21.37-26.66L21.16-26.53L20.68-26.53L20.47-26.40L20.12-26.32L20.04-26.19L20.04-26.40L20.12-26.66L20.04-26.75L20.04-27.09L20.12-27.31L20.25-27.56L20.38-27.65L20.38-28.12L20.12-28.47L19.91-28.47L19.69-28.21L19.57-27.99L19.69-27.65L20.04-27.78L19.78-27.43L19.69-27.31L19.35-27.22L19.22-27.43L19.01-27.56L18.53-27.56L18.32-27.22L17.97-27.22L17.76-27.43L17.84-27.65L18.10-27.65L18.53-27.91L18.79-27.99L18.88-28.12L19.01-28.47L18.88-28.55L18.66-28.55L18.45-28.68L18.19-29.03L18.32-29.24L18.53-29.03L18.79-28.90L18.88-28.81L19.14-28.68L19.44-28.55L19.78-28.68L20.12-29.03L20.38-28.90L20.60-28.55L20.68-28.34L20.81-28.21L21.03-27.91L21.29-27.99L21.37-28.21L21.50-28.47L21.63-28.68L21.84-28.90L22.06-28.68L22.40-28.47L22.62-28.34L22.40-28.21L22.19-28.12L22.06-28.12L21.84-27.99L21.63-27.99L21.37-27.91L21.37-27.65L21.50-27.43L21.63-27.31L21.84-26.96L21.84-26.32L22.06-26.06L22.19-26.19L22.27-25.97L22.19-25.71L22.06-25.50L21.84-25.28ZM20.81-28.90L20.81-29.15L20.94-29.24L21.16-29.15L21.03-28.90ZM26.02-10.02L26.53-9.50L27.09-9.89L27.09-10.49L27.05-11.05L27.09-11.52L27.05-11.95L27.09-12.64L27.13-13.03L27.00-13.63L27.09-14.19L27.13-14.71L27.00-15.22L27.09-15.70L27.00-16.21L27.05-16.77L27.13-17.29L27.13-18.28L27.00-18.79L27.00-19.35L27.13-19.87L27.13-20.38L27.05-20.90L27.09-21.37L27.00-21.84L27.05-22.49L27.13-22.92L27.09-23.44L27.13-24.08L27.00-24.47L27.09-25.11L27.00-25.54L27.05-26.14L27.09-27.09L26.88-27.65L26.66-27.95L26.36-28.34L25.97-28.17L25.93-27.13L25.89-26.70L25.93-26.14L25.93-25.54L25.97-25.03L25.97-24.55L26.02-24.08L25.97-23.52L25.93-23.05L26.02-22.58L25.93-21.97L25.89-21.46L25.93-20.86L25.97-20.47L26.02-19.82L25.97-19.35L25.89-18.88L26.02-18.28L25.89-17.72L25.97-17.29L25.89-16.68L25.89-16.30L25.97-15.74L25.93-15.27L25.89-14.58L25.97-14.10L25.97-13.67L26.02-13.16L26.02-12.56L25.97-12.13L25.93-11.48L25.89-11.01L26.02-10.54ZM22.62-27.65L22.62-27.78L22.88-27.78L22.88-27.65ZM20.47-26.88L20.81-26.96L20.60-27.22ZM17.41-26.66L17.07-26.88L17.41-27.09L17.63-26.96L17.63-26.66ZM19.14-26.40L19.14-26.66L19.35-26.66L19.35-26.40ZM18.79-24.81L18.53-24.94L18.45-25.07L18.32-25.28L18.32-25.71L18.19-26.06L18.19-26.40L18.66-26.53L18.79-26.40L18.79-26.06L18.66-25.71L18.66-25.28L18.79-25.16L19.14-25.16L19.35-25.37L19.22-25.63L19.35-25.71L19.57-25.63L19.78-25.50L20.04-25.37L20.04-25.16L19.57-25.28L19.35-24.94L19.01-24.81ZM23.22-25.71L23.22-26.06L23.31-26.32L23.52-26.19L23.52-25.97L23.44-25.84ZM21.03-24.81L20.94-24.94L20.68-25.16L20.60-25.50L20.60-25.71L20.68-25.97L20.81-26.06L21.03-25.97L21.03-25.63L21.16-25.37L21.29-25.16L21.37-24.94ZM16.73-25.28L16.60-25.50L16.86-25.50L16.86-25.37ZM17.54-23.69L17.41-23.82L17.54-24.04L17.63-24.12L17.76-24.38L17.76-24.81L17.41-25.16L17.54-25.50L17.84-25.50L17.97-25.28L17.97-24.94L18.10-24.60L18.19-24.25L18.10-24.04L17.97-23.91L17.76-23.82ZM22.75-25.28L22.62-25.50L22.88-25.50ZM22.06-22.79L21.97-23.13L22.06-23.35L22.27-23.48L22.53-23.69L22.27-24.12L22.27-24.73L21.84-24.73L21.97-24.94L22.19-25.07L22.40-24.94L22.62-24.94L22.75-24.73L22.88-24.38L22.75-24.12L22.75-23.35L22.53-23.01L22.27-22.79ZM20.81-23.01L20.47-23.13L20.25-23.35L20.25-23.69L20.38-24.04L20.25-24.12L20.25-24.60L20.47-24.81L20.60-24.73L20.68-24.47L20.81-24.38L20.81-23.91L20.68-23.69L20.68-23.48L20.81-23.22ZM23.22-24.38L23.44-24.60L23.52-24.38ZM19.57-23.91L19.57-24.38L19.78-24.25L19.78-24.12ZM21.63-23.91L21.50-24.04L21.37-24.25L21.37-24.38L21.84-24.25L21.97-23.91ZM18.53-23.22L18.32-23.35L18.45-23.56L18.66-23.56L18.79-23.69L18.66-23.91L19.01-24.04L19.14-23.82L19.01-23.56L18.79-23.35ZM21.29-18.45L21.03-18.58L21.03-19.26L21.16-19.48L21.16-19.95L20.81-20.17L20.60-20.17L20.38-20.04L20.04-20.17L19.91-20.38L19.78-20.51L19.35-20.73L19.14-20.73L18.88-20.86L18.79-21.20L18.53-21.63L18.66-22.10L18.79-22.32L18.79-22.53L19.14-23.01L19.22-23.13L19.35-23.35L19.69-23.56L19.78-23.22L19.69-23.01L19.69-22.32L19.44-22.23L19.35-22.45L19.35-22.66L19.14-22.66L19.01-22.32L19.01-22.23L18.88-21.97L19.01-21.63L19.14-21.41L19.22-21.29L19.57-21.29L19.91-21.63L20.04-21.29L19.91-20.86L20.25-20.51L20.60-20.51L20.81-20.64L20.94-20.73L21.16-20.86L21.29-20.64L21.03-20.51L21.29-20.17L21.37-19.95L21.29-19.48L21.37-19.39L21.37-19.14L21.50-18.79L21.50-18.45ZM21.29-21.97L21.16-22.23L21.16-22.45L21.29-22.53L21.37-22.32L21.37-22.10ZM22.19-21.76L22.19-22.23L22.40-22.32L22.88-22.45L22.96-22.32L22.96-21.97L22.75-21.76ZM17.20-21.29L17.29-21.63L17.63-21.97L17.76-21.76L17.41-21.41ZM22.88-20.86L22.88-21.07L23.09-20.98L22.96-20.86ZM16.38-20.30L16.38-20.51L16.60-20.51L16.60-20.30ZM17.41-19.82L17.29-20.04L17.63-20.04ZM18.32-19.39L18.32-19.61L18.53-19.69L18.79-19.61L18.66-19.48L18.45-19.39ZM19.14-19.05L19.01-19.26L19.22-19.39L19.22-19.14ZM23.09-18.92L23.09-19.14L23.44-19.14L23.31-18.92ZM20.81-17.46L20.60-17.54L20.60-17.80L20.68-17.89L20.81-17.67L20.94-17.54ZM22.53-17.46L22.53-17.67L22.62-17.89L22.75-17.89L22.96-17.67L22.88-17.46ZM18.53-16.86L18.45-17.11L18.66-17.20L18.88-17.33L19.01-17.11L18.79-16.86ZM22.40-15.39L22.27-15.52L22.19-15.74L22.19-16.08L22.40-16.21L22.53-15.95L22.62-15.74L22.75-15.52ZM21.72-14.84L21.84-15.05L22.06-15.05L22.06-14.84ZM17.07-13.80L16.94-14.02L16.94-14.28L17.07-14.49L17.29-14.71L17.41-14.71L17.41-14.28L17.29-14.02L17.20-13.80ZM18.19-13.12L18.19-13.37L18.45-13.24L18.32-13.12ZM20.60-12.13L20.68-12.34L20.81-12.21L20.81-12.13ZM22.27-9.16L22.19-9.37L22.27-9.50L22.40-9.29ZM20.25-8.13L20.04-8.34L19.91-8.60L20.12-8.60L20.47-8.26ZM21.50-8.26L21.37-8.34L21.37-8.60L21.72-8.47L21.72-8.34ZM33.97-6.79L33.97-7.44L34.10-7.57L34.10-6.88ZM32.03-7.10L32.16-7.44L32.29-7.35ZM30.23-5.85L30.14-6.11L30.01-6.32L29.67-6.45L29.54-6.19L29.33-6.45L29.46-6.54L29.46-7.35L29.80-7.10L29.89-6.88L30.01-6.79L30.14-6.54L30.23-6.32ZM31.82-6.32L31.82-6.54L32.03-6.79L32.16-6.54L32.29-6.32ZM33.63-6.11L33.20-6.19L33.28-6.54L33.54-6.45L33.63-6.32ZM18.58 2.02L19.52 2.06L20.08 1.98L20.47 2.02L21.07 1.98L21.59 2.11L22.10 1.98L22.58 2.11L23.13 1.98L23.69 2.06L24.08 1.98L24.60 1.98L25.16 2.11L25.63 2.11L26.23 2.02L26.79 2.11L27.22 2.06L27.78 2.11L28.25 2.02L28.85 1.98L29.28 2.06L29.76 1.98L30.27 2.06L30.92 2.02L31.30 1.98L31.82 2.11L32.42 2.11L32.85 1.98L33.37 2.11L34.01 1.98L34.49 2.02L35.05 1.98L35.56 2.06L36.46 2.06L36.94 1.81L37.41 1.68L37.80 1.42L38.14 1.03L38.36 0.56L38.53 0.04L38.61-1.03L38.53-1.55L38.57-2.06L38.48-2.67L38.53-3.18L38.57-3.61L38.53-4.17L38.57-5.20L38.48-5.76L38.18-6.19L37.88-6.36L37.37-6.24L37.41-5.25L37.45-4.77L37.45-4.17L37.50-3.66L37.50-2.62L37.45-2.11L37.41-1.46L37.45-0.52L37.24 0.13L36.94 0.43L36.55 0.73L36.12 0.82L35.05 0.95L34.44 0.86L33.93 0.90L32.90 0.90L32.47 0.99L31.82 0.86L30.83 0.86L29.89 0.95L29.28 0.86L28.81 0.95L28.34 0.86L27.73 0.90L27.26 0.86L25.63 0.86L25.16 0.95L24.08 0.95L23.52 0.90L23.01 0.95L22.58 0.86L22.10 0.95L21.46 0.99L20.98 0.90L20.47 0.99L19.95 0.86L19.44 0.99L18.92 0.95L18.45 0.95L17.46 0.99L17.24 1.29L17.59 1.72L17.93 1.85ZM26.70-5.50L26.36-5.76L26.27-5.63L26.06-5.76L26.27-5.98L26.49-6.11L26.83-5.98L26.96-5.85L26.96-5.50ZM31.13-5.76L30.92-5.85L30.79-5.98L31.05-6.11L31.39-5.98ZM32.38-4.60L32.03-4.86L32.29-5.07L32.51-5.07L32.64-5.42L32.38-5.50L32.38-5.85L32.51-6.11L32.85-6.11L33.07-5.85L33.07-5.29L32.85-4.95L32.72-4.86L32.64-4.73ZM33.20-2.92L33.20-3.27L33.28-3.48L33.54-3.61L33.76-3.70L33.76-4.04L33.54-4.17L33.28-4.17L33.07-3.96L33.07-3.70L32.98-3.61L32.85-3.83L32.85-4.04L33.20-4.26L33.28-4.52L33.54-4.39L33.97-4.39L34.23-4.73L34.66-4.86L34.79-4.86L35.22-4.95L35.22-5.07L35.13-5.29L34.87-5.42L34.87-5.76L35.22-5.76L35.35-5.50L35.48-5.20L35.56-4.73L35.35-4.60L35.22-4.60L34.79-4.52L34.66-4.73L34.44-4.60L34.31-4.26L34.23-4.17L34.10-3.96L34.10-3.48L33.97-3.27L33.88-3.14L33.63-3.01L33.54-2.92ZM17.41-4.86L17.20-5.07L17.29-5.29L17.63-5.42L17.84-5.29L18.19-5.29L18.10-4.95L17.84-5.07L17.54-5.07ZM30.92-4.73L30.79-4.95L30.70-5.20L30.92-5.20L31.05-5.07L31.05-4.86ZM25.11-4.04L25.03-4.26L25.11-4.39L25.37-4.04ZM18.32-3.01L18.32-3.35L18.66-3.14ZM24.21-2.92L23.99-3.01L24.12-3.27L24.55-3.27L24.55-3.01L24.47-2.92ZM34.31-2.58L34.10-2.67L34.23-2.92L34.31-2.80ZM25.80-2.37L25.59-2.67L25.93-2.67ZM30.36-2.37L30.23-2.45L30.01-2.58L30.14-2.67L30.57-2.45L30.57-2.37ZM32.98-1.89L32.98-2.02L33.07-2.24L33.28-2.37L33.28-2.11ZM33.76-1.76L33.76-2.11L34.10-2.02L33.97-1.76ZM17.63-1.76L17.76-2.02L17.84-1.76ZM29.54-1.42L29.46-1.55L29.46-1.76L29.54-2.02L30.01-2.02L30.23-1.89L30.36-1.68L30.23-1.42L30.14-1.55L29.80-1.55ZM34.79-1.33L34.79-1.55L35.00-1.55L35.00-1.33ZM41.58 0.09L42.18 0L42.79 0L43.34 0.04L43.99 0L44.68 0.04L45.80 0.04L47.60-0.09L48.12-0.26L48.42-0.65L48.63-1.08L48.63-3.44L48.68-4.13L48.72-4.73L48.63-5.33L48.76-5.89L48.63-6.54L48.72-7.05L48.76-7.65L48.72-8.30L48.72-8.90L48.63-9.50L48.63-10.71L48.68-11.27L48.76-11.91L48.68-12.60L48.72-13.16L48.68-13.67L48.68-14.32L48.76-14.88L48.72-15.61L48.76-16.08L48.63-16.77L48.63-18.02L48.76-18.49L48.63-19.22L48.68-19.69L48.63-20.38L48.63-21.54L48.72-22.19L48.76-22.70L48.72-23.31L48.68-23.95L48.68-25.11L48.63-25.76L48.72-26.36L48.76-27.00L48.63-27.61L48.76-28.12L48.63-29.28L48.42-29.89L48.16-30.23L47.47-30.53L46.35-30.53L45.75-30.44L45.24-30.57L44.59-30.44L43.99-30.53L43.34-30.53L42.83-30.44L42.27-30.44L41.62-30.53L41.11-30.49L39.82-30.49L39.30-30.27L38.96-29.89L38.79-29.33L38.70-28.21L38.66-27.61L38.66-26.96L38.79-26.45L38.70-25.71L38.79-25.20L38.74-24.64L38.66-23.91L38.79-23.44L38.66-22.75L38.70-22.23L38.74-21.54L38.70-20.90L38.74-20.30L38.70-19.69L38.70-19.22L38.74-18.58L38.70-17.97L38.79-17.29L38.70-16.68L38.66-16.08L38.74-15.57L38.79-14.96L38.74-14.41L38.70-13.80L38.66-13.16L38.74-12.56L38.79-11.87L38.74-11.31L38.66-10.66L38.70-10.11L38.79-9.59L38.79-8.86L38.74-8.39L38.70-7.78L38.79-7.10L38.66-6.54L38.66-5.33L38.74-4.73L38.70-4.13L38.66-3.44L38.70-2.84L38.66-2.37L38.74-1.08L39.00-0.65L39.30-0.22L39.90 0L41.02 0ZM43-28.34L42.66-28.42L42.23-28.68L42.10-28.55L41.88-28.68L42.01-28.77L42.23-29.03L42.44-29.03L42.66-28.90L42.79-28.77L43.13-28.68L43.56-28.77L43.69-28.68L43.56-28.34ZM41.07-28.55L40.98-28.77L41.19-28.77L41.19-28.68ZM44.25-28.34L44.16-28.42L44.38-28.42L44.51-28.34ZM41.88 1.98L43.34 2.11L43.99 1.98L44.46 1.98L44.98 2.06L45.45 2.02L46.40 2.02L47.43 2.11L47.86 1.98L48.81 2.02L49.36 1.85L49.75 1.76L50.27 1.42L50.44 0.99L50.61 0.43L50.57-0.04L50.65-1.03L50.61-1.55L50.65-2.19L50.70-2.71L50.65-3.14L50.65-3.74L50.70-4.13L50.61-4.77L50.74-5.12L50.61-5.72L50.61-6.15L50.70-6.67L50.70-7.18L50.65-7.70L50.70-8.26L50.70-8.86L50.65-9.33L50.74-9.89L50.70-10.36L50.70-10.92L50.74-11.44L50.74-11.87L50.61-12.47L50.65-12.99L50.74-13.42L50.65-13.98L50.70-14.49L50.61-14.88L50.74-15.44L50.61-15.95L50.70-16.51L50.61-16.94L50.65-17.46L50.74-18.10L50.70-18.53L50.70-19.05L50.61-19.57L50.70-20.04L50.61-20.68L50.61-21.07L50.65-21.63L50.74-22.23L50.65-22.70L50.74-23.09L50.61-23.74L50.70-24.25L50.70-24.73L50.74-25.28L50.70-25.76L50.70-27.31L50.44-27.95L50.10-28.21L49.49-28.21L49.62-27.31L49.58-26.79L49.54-26.36L49.62-25.84L49.54-25.37L49.62-24.85L49.54-23.74L49.62-23.22L49.62-22.79L49.58-22.23L49.58-21.72L49.54-21.16L49.49-20.81L49.49-20.17L49.58-19.78L49.49-19.14L49.49-18.71L49.58-18.23L49.49-17.59L49.58-17.20L49.58-16.55L49.49-16.21L49.49-15.57L49.62-15.18L49.58-14.58L49.49-14.02L49.58-13.55L49.49-13.07L49.54-12.47L49.62-12.13L49.49-11.61L49.62-10.97L49.54-10.54L49.62-10.02L49.54-8.90L49.54-8.47L49.62-7.91L49.58-7.48L49.49-6.88L49.62-6.36L49.49-5.89L49.58-5.38L49.62-4.95L49.54-4.39L49.58-3.83L49.58-3.31L49.54-2.92L49.62-2.32L49.54-1.81L49.58-1.38L49.49-0.26L49.41 0.22L49.36 0.65L48.81 0.77L48.38 0.90L47.34 0.86L46.87 0.99L46.27 0.90L45.88 0.90L45.28 0.95L44.89 0.90L44.38 0.95L43.34 0.86L42.74 0.99L42.31 0.95L41.75 0.86L41.02 0.90L40.94 1.51L41.24 1.85ZM45.15-27.65L45.06-27.78L45.06-27.99L45.15-28.08L45.62-28.21L45.84-28.08L45.97-27.99L45.84-27.78L45.62-27.86L45.28-27.86ZM43.69-27.52L43.56-27.78L43.56-28.08L43.90-27.99L43.90-27.78ZM42.57-26.75L42.31-26.83L42.23-26.96L42.10-27.18L42.01-27.43L42.01-27.65L42.10-27.78L42.31-27.52L42.44-27.31L42.57-27.18L42.66-26.96ZM39.95-27.09L39.95-27.43L40.16-27.52L40.29-27.52L40.42-27.31L40.29-27.09ZM41.07-25.84L40.72-26.06L40.51-26.19L40.42-26.27L40.42-26.53L40.64-26.53L40.85-26.83L40.72-27.18L41.07-27.18L41.19-27.09L41.19-26.19ZM44.03-26.96L44.03-27.18L44.25-27.09L44.16-26.96ZM44.03-25.93L43.82-26.19L43.56-26.27L43.47-26.40L43.34-26.62L43.26-26.83L43.26-27.09L43.34-27.09L43.47-26.83L43.56-26.75L43.69-26.53L43.90-26.53L44.16-26.19L44.16-25.93ZM46.53-26.62L46.18-26.75L46.40-26.96ZM44.94-26.40L44.85-26.53L44.94-26.62L45.06-26.40ZM43.69-25.03L43.82-25.24L44.16-25.50L44.25-25.24L43.90-25.03ZM40.98-24.94L40.85-25.03L41.07-25.16L41.32-25.24L41.41-25.37L41.75-25.37L41.88-25.24L42.01-25.16L41.88-25.03L41.41-25.03L41.19-24.94ZM45.49-23.99L45.41-24.12L45.49-24.25ZM40.98-23.01L40.72-23.09L40.85-23.35L40.98-23.56L40.85-23.78L41.07-24.12L41.19-23.99L41.19-23.78L41.32-23.56L41.07-23.09ZM44.25-22.88L44.03-23.01L43.69-23.35L43.56-23.69L43.90-23.69L44.03-23.44L44.25-23.22L44.38-23.22L44.59-23.01ZM41.67-22.53L41.41-22.66L41.75-23.01L41.75-22.66ZM42.66-22.32L42.44-22.40L42.57-22.53L42.66-22.75L43-22.75L42.91-22.32ZM44.72-21.84L44.51-21.97L44.59-22.32L44.85-22.40L45.06-22.40L45.15-22.32L45.06-22.10L44.94-21.97ZM46.53-21.41L46.40-21.63L46.40-21.84L46.66-22.10L46.74-21.76L46.66-21.50ZM41.67-20.60L41.41-20.73L41.32-21.07L41.32-21.41L41.07-21.50L40.98-21.76L41.32-21.97L41.41-21.84L41.67-21.76L41.88-21.76L41.88-21.50L41.67-21.16L41.67-20.94L41.75-20.73ZM44.59-20.94L44.25-21.07L44.16-21.16L44.03-21.41L43.90-21.50L43.82-21.76L43.90-21.97L44.16-21.76L44.25-21.63L44.51-21.41L44.59-21.16ZM47.09-21.63L47.00-21.76L47.21-21.76ZM45.15-20.60L44.94-20.73L45.06-20.94L45.15-21.29L45.06-21.41L45.28-21.50L45.49-21.29L45.75-21.16L45.84-21.07L45.97-20.86L45.75-20.86L45.28-20.73ZM44.38-19.82L44.16-20.04L43.90-20.04L43.69-20.17L43.47-19.91L43.34-20.04L43.56-20.38L43.26-20.73L43-20.86L42.79-20.94L42.66-21.16L42.91-21.29L43.13-21.16L43.47-21.16L43.47-20.94L43.82-20.60L44.03-20.51L44.25-20.38L44.38-20.17L44.51-19.91ZM40.42-20.86L40.42-20.94L40.64-21.07L40.64-20.86ZM42.66-20.04L42.44-20.17L42.31-20.38L42.31-20.86L42.44-20.94L42.79-20.25ZM45.28-19.82L45.49-20.04L45.75-20.17L45.97-20.25L46.31-20.25L46.53-20.17L46.66-19.91L46.31-19.82ZM46.87-18.92L46.66-19.01L46.53-19.26L46.53-19.48L46.74-19.57L47.00-19.57L47.09-19.35ZM40.72-19.01L40.72-19.26L40.98-19.26L41.19-19.35L41.41-19.35L41.32-19.14L41.19-19.01ZM43.69-17.33L43.56-17.54L43.47-17.67L43.34-17.89L43.26-18.02L43.47-18.32L43.56-18.58L43.69-18.92L44.16-18.92L44.25-19.14L44.51-19.01L44.51-18.79L44.38-18.58L44.16-18.45L43.90-18.45L43.69-18.23L43.90-17.89L44.16-17.54L44.03-17.33ZM41.19-17.42L40.98-17.54L40.98-18.02L41.07-18.23L41.07-18.45L41.32-18.58L41.41-18.45L41.32-18.23L41.32-17.67ZM40.16-17.76L39.95-18.02L40.16-18.10L40.42-18.02ZM46.40-16.64L46.31-16.73L46.31-16.99L46.10-17.33L45.97-17.42L46.18-17.54L46.18-17.42L46.53-16.73ZM47.21-16.73L47.00-16.86L47.00-17.07L47.34-16.99ZM45.28-16.08L45.15-16.17L45.49-16.73L45.62-16.86L45.84-16.43L45.62-16.17ZM42.10-15.48L42.10-15.74L42.23-15.95L42.57-16.08L42.79-15.95L42.66-15.61L42.44-15.48ZM44.38-15.82L44.16-15.95L44.38-16.08L44.51-15.95ZM41.07-14.15L41.07-14.49L41.19-14.71L41.32-14.84L41.41-15.05L41.54-15.27L41.67-15.27L41.67-14.71L41.54-14.49L41.41-14.36ZM44.72-13.67L44.59-13.89L44.51-14.15L44.51-14.23L44.59-14.49L44.85-14.36L45.15-14.49L45.15-14.92L44.94-15.27L45.06-15.27L45.41-14.92L45.41-14.58L45.28-14.23L44.94-14.02L44.94-13.80ZM44.16-14.71L43.82-14.84L43.82-15.05L43.90-15.18L44.16-14.92ZM45.97-14.71L46.10-14.92L46.18-14.71ZM43.13-14.23L43-14.36L43.13-14.58L43.26-14.49L43.34-14.23ZM43-12.90L43-13.12L43.26-13.33L43.47-13.46L43.82-13.80L44.03-13.46L43.69-13.12L43.47-12.99L43.26-12.90ZM45.97-13.24L46.18-13.59L46.40-13.59L46.40-13.33L46.18-13.24ZM41.67-12.99L41.67-13.33L41.75-13.33L41.88-12.99ZM42.44-12.00L42.23-12.21L42.10-12.43L42.10-12.90L42.31-12.90L42.31-12.64L42.44-12.43L42.66-12.34L42.66-12.00ZM44.59-12.34L44.59-12.64L44.85-12.43ZM45.75-11.40L45.62-11.65L45.62-12.00L45.84-12.34L46.10-12.08L45.97-11.87L45.97-11.65L45.84-11.40ZM40.51-11.87L40.64-12.21L40.85-12.08L40.85-11.87ZM46.66-11.40L46.53-11.52L46.66-11.74L46.87-11.87L47.00-12.08L47.21-12.08L47.34-11.87L47.34-11.65L47.21-11.52L47.00-11.52L46.87-11.40ZM43.26-11.40L43-11.52L43-11.74L43.34-11.65ZM42.10-9.72L41.88-9.80L42.01-10.06L42.10-10.28L42.23-10.49L42.01-10.84L41.75-11.05L41.88-11.31L42.10-11.18L42.23-10.84L42.31-10.62L42.44-10.41L42.31-10.06L42.23-9.80ZM44.94-11.05L45.06-11.31L45.15-11.31L45.15-11.05ZM41.41-10.41L41.19-10.49L41.07-10.84L41.41-10.84L41.54-10.62ZM47.00-9.50L46.87-9.59L46.74-9.80L46.66-10.06L46.53-10.41L46.53-10.62L46.66-10.84L47.09-10.84L47.00-10.62L47.43-9.93L47.43-9.72L47.34-9.50ZM44.25-9.50L44.16-9.59L44.16-9.80L44.03-10.06L44.03-10.49L44.16-10.62L44.38-10.41L44.38-9.50ZM43.26-10.28L43.34-10.49L43.56-10.41L43.47-10.28ZM41.54-8.90L41.19-9.03L41.19-9.50L41.32-9.59L40.85-9.80L40.72-9.59L40.64-9.37L40.29-9.59L40.42-9.72L40.72-9.93L40.98-9.93L41.32-9.80L41.54-9.59L41.67-9.16ZM46.40-9.50L46.18-9.59L46.10-9.72L46.18-9.93L46.53-9.59ZM46.53-8.47L46.31-8.56L46.10-8.69L45.97-8.90L45.97-9.16L46.18-9.25L46.53-9.16L46.87-8.82L47.00-8.56L46.74-8.47ZM44.72-8.47L44.72-8.82L44.94-9.03L45.15-8.69L45.06-8.47ZM39.95-8.34L40.08-8.69L40.16-8.82L40.29-8.82L40.16-8.56ZM43.56-7.78L43.56-8.00L43.34-8.21L43.13-8.13L43-8.21L43.13-8.47L43.26-8.56L43.47-8.47L43.69-8.13L43.82-8.00L43.82-7.78ZM46.53-7.65L46.10-7.78L45.97-7.91L46.10-8.21L46.31-8.13L46.53-8.13L46.66-7.78ZM40.29-7.65L40.08-7.78L40.08-8.00L40.42-7.91ZM42.01-7.44L41.75-7.57L41.67-7.78L41.54-7.91L41.75-8.00L41.88-7.91L42.10-7.65ZM44.51-7.31L44.51-7.44L44.59-7.57L44.72-7.31ZM45.62-5.85L45.28-6.06L45.15-6.32L45.15-7.22L45.41-7.31L45.62-7.44L45.84-7.10L45.62-7.10L45.62-6.41L45.41-6.32L45.62-6.06L45.97-6.19L46.10-6.54L46.31-6.67L46.66-6.88L46.66-7.10L47.00-6.97L47.00-6.75L46.74-6.41L46.53-6.32L46.18-5.98L45.75-5.85ZM43.47-6.67L43.34-6.75L43.56-6.97L43.82-7.10L43.90-7.31L44.03-7.31L44.03-6.97L43.90-6.75L43.69-6.67ZM47.69-6.41L47.56-6.54L47.69-6.75L47.77-6.97L47.99-6.97L47.99-6.75L47.90-6.54ZM41.32-6.32L41.07-6.41L40.85-6.54L40.72-6.67L40.51-6.75L40.51-6.88L40.85-6.88L41.19-6.75L41.41-6.54ZM43.56-5.72L43.34-5.85L43.26-5.98L43.13-6.19L43.26-6.32L43.34-6.19L43.56-6.06L43.82-6.06L44.16-6.19L44.16-6.06L43.90-5.72ZM41.67-3.91L41.41-4.04L41.19-4.39L41.67-4.73L41.88-4.95L41.88-5.16L42.01-5.38L42.01-5.63L42.10-5.85L42.31-5.85L42.31-5.63L42.44-5.38L42.44-4.95L42.31-4.73L42.23-4.47L42.23-4.26L42.10-4.04L41.88-3.91ZM46.87-5.38L46.74-5.63L46.87-5.85L47.09-5.63ZM47.00-4.60L46.74-4.73L46.53-4.73L46.31-4.82L46.10-4.95L45.97-5.07L45.97-5.29L46.40-5.29L46.87-5.16L47.21-5.16L47.34-4.95L47.21-4.73ZM43.69-4.04L43.69-4.39L43.82-4.60L44.03-5.07L44.25-5.16L44.51-5.07L44.51-4.82L44.38-4.73L44.25-4.47L43.90-4.13ZM42.91-3.91L42.66-4.04L42.79-4.26L42.91-4.39L43.13-4.04ZM45.97-4.04L45.84-4.26L46.18-4.39L46.31-4.26L46.40-4.04ZM42.31-2.80L42.23-2.88L41.88-3.14L41.67-3.14L41.41-3.23L40.85-3.23L40.72-3.35L40.98-3.48L41.19-3.48L41.67-3.57L41.75-3.48L42.01-3.35L42.23-3.23L42.31-3.01L42.44-2.88ZM44.16-3.14L44.25-3.35L44.38-3.14ZM44.94-2.88L44.94-3.23L45.15-3.35L45.41-3.23L45.28-3.01ZM46.53-3.01L46.53-3.23L46.66-3.23L46.74-3.14ZM41.75-1.89L41.54-1.98L41.54-2.24L41.67-2.32L42.01-2.24L41.88-1.98ZM52.33 0.09L52.93 0L53.54 0.09L54.01 0.04L54.74-0.04L55.21 0L55.86 0.09L56.46 0.04L57.10 0.04L58.22 0.09L58.82-0.13L59.43-0.26L59.90-0.43L60.24-0.82L60.54-1.33L60.97-2.45L61.02-3.10L61.28-3.66L61.40-4.08L61.75-4.17L63.25-4.08L63.94-4.21L64.41-4.13L65.06-4.21L65.75-4.13L66.44-4.17L66.91-4.08L67.55-4.13L68.16-4.08L69.32-4.13L69.40-4.00L69.75-3.05L69.96-2.58L70.18-1.33L70.56-0.82L70.95-0.43L71.51-0.13L72.07-0.09L72.71 0.04L73.92-0.04L74.56 0.09L75.12 0L75.72 0.04L76.41 0.04L76.97 0.09L77.57 0L78.09-0.04L78.82 0L80.02 0.04L80.50-0.22L80.80-0.73L80.84-1.29L80.41-2.45L80.24-2.92L80.02-3.53L79.85-4.13L79.72-4.69L79.42-5.29L79.21-5.85L79.03-6.36L78.95-7.01L78.60-7.44L78.52-8.00L78.30-8.60L78.00-9.16L77.96-9.72L77.62-10.32L77.53-10.84L77.23-11.40L77.10-11.95L76.84-12.64L76.71-13.20L76.45-13.76L76.07-14.92L75.94-15.39L75.68-15.91L75.47-16.47L75.21-17.20L75.08-17.63L74.82-18.23L74.65-18.79L74.48-19.31L74.26-20.00L74.00-20.60L73.92-21.11L73.70-21.67L73.44-22.15L73.19-22.70L73.06-23.35L72.93-23.91L72.71-24.47L72.46-24.98L72.24-25.59L72.11-26.23L71.85-26.66L71.60-27.35L71.42-27.95L71.29-28.47L70.82-29.63L70.48-30.01L69.92-30.27L69.40-30.49L68.11-30.44L67.60-30.53L67.04-30.49L66.48-30.49L65.88-30.44L64.67-30.44L64.16-30.53L63.47-30.44L62.87-30.49L61.83-30.49L61.10-30.32L60.63-30.06L60.33-29.54L59.86-28.42L59.64-27.91L59.47-27.35L59.21-26.62L59.04-26.06L58.82-25.63L58.57-25.03L58.52-24.42L58.27-23.95L58.14-23.39L57.92-22.79L57.58-22.19L57.45-21.54L57.32-21.11L57.06-20.47L56.85-19.91L56.72-19.39L56.37-18.75L56.29-18.19L56.03-17.72L55.81-17.11L55.69-16.51L55.38-16.00L55.30-15.48L55.04-14.79L54.87-14.19L54.61-13.72L54.48-13.12L54.31-12.56L54.01-12.00L53.88-11.44L53.66-10.88L53.41-10.32L53.32-9.76L53.11-9.16L52.85-8.56L52.72-8.00L52.42-7.40L52.29-6.97L52.12-6.41L51.82-5.76L51.73-5.16L51.30-4.13L51.08-3.53L50.78-2.88L50.61-2.41L50.31-1.25L50.27-0.73L50.61-0.17L51.17 0ZM63.43-24.04L63.30-24.17L63.21-24.38L63.08-24.51L63.08-24.73L63.00-25.20L63.00-25.63L63.08-25.97L63.21-26.23L63.30-26.32L63.43-26.66L63.43-26.88L63.30-27.13L63.30-27.48L63.43-27.56L63.77-27.91L63.64-28.04L63.43-28.12L63.30-28.47L63.55-28.60L63.64-28.72L63.90-28.60L63.98-28.38L63.98-28.12L63.90-27.91L63.77-27.48L63.77-27.22L63.98-26.88L64.24-27.13L64.24-27.22L64.46-27.35L64.54-27.22L64.89-27.22L65.15-27.56L65.36-27.82L65.49-27.91L65.70-28.38L65.83-28.60L65.83-28.94L66.05-29.07L66.13-28.81L66.05-28.38L65.70-28.12L65.83-27.69L65.70-27.48L65.36-27.35L65.15-27.00L64.89-26.88L64.67-26.79L64.54-26.57L64.54-26.32L64.67-26.10L64.11-26.10L63.90-25.97L63.77-25.89L63.55-25.76L63.30-25.63L63.08-25.28L63.08-25.20L63.21-24.98L63.43-24.73L63.55-24.04ZM67.08-27.82L66.74-28.12L66.61-28.60L66.74-28.94L66.95-29.07L67.17-28.81L67.17-28.38L67.51-28.25L67.73-28.38L67.98-28.60L68.33-28.81L68.54-28.94L68.67-28.94L68.54-28.72L68.33-28.38L67.98-28.25L67.64-28.04L67.51-27.91ZM64.54-27.82L64.46-28.04L64.46-28.38L64.67-28.60L64.89-28.72L64.80-28.38L64.80-28.25L64.89-28.12L65.02-27.82ZM74.73 2.06L75.81 2.06L76.33 2.11L76.93 1.98L77.40 2.11L77.87 2.11L78.48 2.02L78.99 2.02L79.46 2.11L80.02 2.06L80.97 2.06L81.57 1.98L82.00 1.81L82.60 1.55L82.99 1.25L83.12 0.73L83.38 0.22L83.21-0.30L83.21-0.90L82.78-1.76L82.60-2.28L82.43-2.88L82.39-3.35L82.13-3.74L82.04-4.17L81.87-4.82L81.61-5.20L81.44-5.68L81.36-6.11L81.18-6.71L80.93-7.10L80.71-7.61L80.63-8.04L80.45-8.56L80.20-9.12L80.02-9.50L79.98-9.98L79.81-10.58L79.64-10.97L79.46-11.52L79.16-12.00L79.08-12.47L78.82-13.03L78.73-13.50L78.60-13.89L78.39-14.41L78.22-14.92L78.09-15.44L77.92-15.78L77.79-16.38L77.57-16.90L77.40-17.29L77.27-17.76L77.10-18.32L76.84-18.79L76.67-19.22L76.50-19.78L76.37-20.21L76.20-20.64L75.94-21.16L75.85-21.67L75.68-22.23L75.42-22.58L75.38-23.13L75.08-23.61L74.82-24.64L74.69-25.03L74.43-25.54L74.22-26.06L74.09-26.49L73.70-27.43L73.44-27.82L73.23-28.12L72.80-28.38L72.37-28.21L72.63-27.09L72.89-26.70L72.97-26.23L73.23-25.67L73.36-25.11L73.49-24.68L73.70-24.21L73.96-23.74L74.00-23.18L74.26-22.70L74.43-22.32L74.61-21.80L74.69-21.29L74.91-20.77L75.12-20.38L75.29-19.95L75.38-19.31L75.64-18.83L75.85-18.36L75.94-17.93L76.07-17.42L76.33-16.99L76.54-16.47L76.71-16.08L76.84-15.52L77.06-14.96L77.06-14.53L77.31-14.02L77.53-13.63L77.62-13.07L77.79-12.69L77.92-12.08L78.22-11.70L78.30-11.22L78.56-10.71L78.60-10.11L78.78-9.72L79.03-9.29L79.25-8.73L79.38-8.21L79.59-7.74L79.72-7.22L79.89-6.75L80.02-6.28L80.28-5.85L80.45-5.29L80.54-4.95L80.75-4.30L80.93-3.96L81.14-3.44L81.27-3.01L81.44-2.45L81.74-1.38L81.87-0.95L81.96-0.52L81.96 0.09L81.66 0.52L81.27 0.69L80.75 0.82L79.21 0.86L78.69 0.95L78.30 0.90L77.74 0.95L77.23 0.95L76.80 0.86L76.15 0.95L75.68 0.90L74.78 0.90L73.66 0.95L73.23 0.90L72.71 0.86L72.41 1.08L72.84 1.55L73.27 1.72L73.83 1.89L74.35 2.02ZM68.67-27.82L68.67-28.04L68.89-28.04L68.89-27.91ZM61.15-27.00L60.93-27.35L61.06-27.69L61.28-27.82L61.49-27.56L61.49-27.35L61.40-27.00ZM62.05-27.00L61.96-27.22L61.96-27.69L62.05-27.82L62.31-27.69L62.39-27.35L62.74-27.48L62.87-27.48L62.74-27.22L62.52-27.00ZM69.92-25.97L69.66-26.10L69.45-26.32L69.45-26.66L69.57-26.88L69.66-27.00L69.79-27.22L69.79-27.48L70.00-27.56L70.22-27.48L70.22-27.13L70.00-26.88L69.79-26.79L69.66-26.57L69.79-26.32L70.00-26.32L70.22-25.97ZM66.61-25.76L66.48-25.97L66.39-26.23L66.26-26.57L66.26-26.79L66.39-26.88L66.61-27.13L66.61-26.45L66.74-26.10L66.82-25.89ZM67.30-25.63L67.38-25.89L67.38-26.10L67.30-26.32L67.17-26.57L67.38-26.79L67.73-26.88L68.07-26.79L68.20-26.45L67.98-26.32L67.73-25.97L67.64-25.76L67.51-25.63ZM60.24-26.23L60.24-26.45L60.37-26.45L60.46-26.32ZM68.41-25.41L68.33-25.76L68.67-26.10L68.54-26.45L68.97-26.45L69.10-26.23L68.89-25.76L68.76-25.63ZM60.93-25.89L60.80-26.10L61.06-26.23L61.40-26.10L61.15-25.89ZM62.31-24.98L62.31-25.20L62.18-25.28L62.18-25.54L62.31-25.63L62.39-25.54L62.39-24.98ZM60.37-24.98L60.37-25.20L60.46-25.41L60.72-25.54L60.80-25.41L60.80-25.07L60.72-24.98ZM64.11-24.73L63.77-24.85L63.64-25.07L63.90-25.28L64.11-25.20L64.46-25.28L64.54-25.41L64.67-25.20L64.46-25.20L64.24-24.98ZM69.23-25.20L69.10-25.41L69.32-25.41L69.32-25.28ZM65.02-24.38L64.89-24.73L65.02-24.85L65.02-25.07L65.49-25.28L66.13-25.28L66.39-25.07L66.48-24.85L66.26-24.98L66.05-24.98L65.70-24.85L65.23-24.85L65.15-24.64ZM67.51-23.39L67.08-23.82L66.48-23.82L66.05-23.95L65.83-24.04L65.92-24.30L66.05-24.38L66.26-24.38L66.48-24.30L66.61-24.17L66.95-24.17L67.08-24.38L66.95-24.51L67.08-24.73L67.38-24.85L67.73-24.51L67.98-24.38L68.07-24.17L68.33-24.04L68.41-23.82L68.20-23.48L67.98-23.48L67.64-23.61ZM68.54-24.51L68.41-24.73L68.89-24.73L68.76-24.51ZM70.69-21.67L70.48-21.80L70.48-22.79L70.13-23.13L70.13-23.26L70.35-23.61L70.56-23.61L70.69-23.95L70.56-24.17L70.82-24.38L70.91-24.17L71.04-24.04L71.04-23.39L70.82-23.26L70.82-23.05L70.91-22.79L71.04-22.58L70.91-22.36L70.91-21.89ZM61.06-23.82L60.93-23.95L61.06-24.17L61.15-24.30L61.28-24.17L61.15-24.04ZM64.67-23.13L64.67-23.26L64.89-23.39L64.80-23.74L64.67-23.82L64.67-24.04L65.02-23.95L65.15-23.82L65.23-23.61L65.15-23.26ZM68.97-23.61L68.67-23.82L68.67-24.04L69.23-24.04L69.45-23.95L69.45-23.74L69.23-23.61ZM61.71-23.61L61.96-23.95L62.05-23.61ZM71.60-22.45L71.51-22.58L71.38-22.79L71.38-23.26L71.81-23.48L71.94-23.48L71.81-22.58ZM67.17-22.15L66.95-22.23L66.82-22.70L66.95-22.79L67.17-23.05L67.30-22.79L67.30-22.36ZM69.10-22.36L68.97-22.58L69.10-22.92L69.32-23.05L69.45-22.92L69.32-22.70L69.32-22.45ZM63.77-21.89L63.55-22.02L63.55-22.36L63.64-22.58L63.77-22.70L63.90-22.92L63.98-22.79L63.98-22.58L63.90-22.36L63.90-22.15ZM65.02-20.30L64.89-20.55L64.89-20.77L64.80-20.98L64.80-21.20L64.89-21.46L65.02-21.20L65.23-21.11L65.70-21.11L65.83-21.33L65.92-21.46L66.13-21.80L66.13-22.02L65.92-22.15L65.58-22.23L65.36-22.36L65.15-22.45L65.02-22.45L64.80-22.58L64.67-22.79L65.02-22.70L65.23-22.70L65.49-22.79L65.70-22.79L65.92-22.70L66.05-22.45L66.26-22.23L66.39-22.15L66.48-22.02L66.74-21.89L66.74-21.54L66.48-21.54L66.13-21.33L66.05-21.11L65.83-20.90L65.49-20.64L65.36-20.43ZM72.07-22.45L72.07-22.70L72.28-22.79L72.41-22.45ZM61.28-22.23L61.15-22.36L61.15-22.70L61.49-22.45L61.49-22.23ZM68.20-22.15L67.98-22.36L68.20-22.45ZM62.52-21.46L62.39-21.54L62.74-21.89L62.74-22.15L63.08-22.23L63.08-22.02L62.87-21.67ZM64.89-21.80L65.15-22.15L65.23-22.02ZM68.76-21.67L68.67-22.02L68.97-22.02L68.97-21.80ZM72.28-21.67L72.07-21.89L72.28-21.89ZM70.35-20.98L70.13-21.20L69.92-21.33L70.00-21.67L70.35-21.46L70.48-21.20L70.56-20.98ZM67.73-19.95L67.64-20.30L67.73-20.43L67.73-20.64L67.64-20.98L68.07-20.98L68.20-20.77L68.41-20.90L68.54-20.98L68.67-21.20L68.97-21.11L69.10-20.98L69.23-20.90L69.32-20.64L69.10-20.43L68.76-20.43L68.67-20.64L68.33-20.43L68.07-20.21ZM71.94-20.64L71.72-20.77L71.72-20.98L71.81-21.11L72.41-21.11L72.41-20.77L72.15-20.64ZM61.15-20.55L60.80-20.90L60.80-20.98L61.28-20.90L61.49-20.77ZM63.00-20.55L62.87-20.90L63.21-20.90L63.43-20.64L63.43-20.55ZM65.70-19.18L65.23-19.39L65.02-19.52L64.80-19.61L64.46-19.95L64.33-20.21L64.24-20.55L64.24-20.90L64.33-20.90L64.67-20.55L64.67-20.08L64.80-19.87L65.02-19.95L65.36-19.74L65.58-19.52ZM71.04-20.30L70.82-20.43L70.91-20.55L71.04-20.43ZM60.46-19.74L60.46-19.87L60.59-19.95L60.80-20.21L61.06-20.08L60.93-19.87L60.72-19.74ZM66.13-19.87L66.05-20.08L66.39-20.08ZM71.60-19.52L71.60-19.74L71.81-19.95L72.07-19.87L71.94-19.61L71.81-19.52ZM72.41-19.61L72.41-19.87L72.63-19.95L72.76-19.74L72.63-19.61ZM66.82-18.83L66.82-19.05L66.61-19.31L66.61-19.52L66.95-19.52L67.17-19.31L67.17-19.05L67.08-18.83ZM63.98-19.18L63.98-19.31L64.24-19.39L64.24-19.31ZM61.62-18.49L61.49-18.71L61.62-18.83L61.40-19.05L61.49-19.31L61.71-19.18L61.83-18.83L61.83-18.62ZM63.21-19.05L63.21-19.31L63.43-19.18L63.30-19.05ZM69.45-17.93L69.57-18.28L69.32-18.49L69.10-18.49L68.89-18.62L68.67-18.83L68.76-19.05L68.89-19.31L69.10-19.18L69.45-19.05L69.66-18.96L69.57-18.62L69.92-18.36L70.00-18.28L69.92-18.06L69.79-17.93ZM60.16-18.71L60.24-19.05L60.37-19.05L60.46-18.83ZM70.48-18.71L70.56-18.96L70.82-18.83ZM59.21-18.28L59.34-18.62L59.56-18.36ZM71.72-17.72L71.72-18.06L71.81-18.15L72.07-18.28L72.41-18.06L72.07-17.72ZM72.84-17.93L72.84-18.15L72.97-18.28L73.19-18.28L73.19-18.06L73.06-17.93ZM64.80-11.95L63.86-12.04L63.64-12.21L63.68-12.60L63.81-13.16L64.03-13.80L64.20-14.28L64.33-14.92L64.63-16.04L64.80-16.68L65.10-17.37L65.27-17.80L65.53-17.85L65.75-17.50L66.01-16.73L66.13-16.17L66.52-14.88L66.65-14.32L66.82-13.76L67.08-13.12L67.25-12.60L67.34-12.26L67.21-12.04L66.13-12.04L65.45-11.95ZM61.49-17.11L61.40-17.24L61.15-17.37L61.06-17.59L60.80-17.72L60.80-17.80L61.28-17.80L61.40-17.59L61.49-17.46L61.62-17.24ZM73.53-16.68L73.19-16.77L73.06-16.90L72.97-17.11L72.84-17.24L72.97-17.46L73.19-17.46L73.40-17.37L73.53-17.24L73.66-17.03ZM68.20-17.03L68.07-17.11L68.33-17.37L68.54-17.24L68.41-17.03ZM71.94-16.77L71.60-17.03L71.51-17.37L71.94-17.24L72.07-17.11L72.15-16.90ZM61.96-16.47L61.83-16.90L62.18-16.90L62.31-16.77L62.18-16.47ZM69.79-16.21L69.79-16.47L69.92-16.68L70.13-16.68L70.22-16.55L70.22-16.34L70.13-16.21ZM60.59-16.00L60.59-16.34L60.93-16.47L61.15-16.47L61.06-16.13L60.93-16.00ZM72.15-15.44L71.94-15.52L72.28-15.87L72.50-15.87L72.76-16.00L72.84-16.21L73.32-16.21L73.53-15.87L73.06-15.78L72.97-15.87L72.63-15.65L72.41-15.52ZM63.43-15.65L63.08-15.87L62.65-15.87L62.39-15.78L62.18-15.78L62.31-15.87L62.52-16.00L62.87-16.13L63.21-16.00L63.55-15.78ZM68.54-13.63L68.41-13.72L68.54-13.85L68.76-14.19L68.33-14.88L68.20-14.96L68.20-15.65L68.33-15.87L68.54-16.13L68.97-16.13L69.10-15.87L69.32-15.65L69.23-15.44L68.97-15.52L68.67-15.65L68.54-15.22L68.67-14.96L68.76-14.75L68.89-14.28L68.89-14.19L68.67-13.72ZM59.00-15.52L58.87-15.65L58.87-15.78L59.13-15.78ZM69.92-15.31L69.92-15.52L70.00-15.65L70.35-15.65L70.22-15.31ZM64.84-13.24L64.84-12.90L65.27-12.77L65.75-12.81L65.92-13.24L65.96-14.28L65.79-14.88L65.62-15.31L65.27-15.27L65.15-14.36L64.93-13.85ZM72.63-14.62L72.50-15.09L72.76-15.22L72.97-15.22L72.97-14.96L72.84-14.75ZM57.41-14.62L57.19-14.96L57.53-14.96ZM73.06-14.28L73.32-14.62L73.53-14.41L73.40-14.28ZM57.75-13.63L57.53-13.72L57.96-13.93L58.22-13.93L58.57-14.19L58.65-14.41L58.78-14.28L58.65-14.06L58.31-13.85L57.96-13.72ZM74.00-13.63L73.75-13.85L73.75-14.06L74.09-14.19L74.09-13.93ZM59.13-13.72L59.21-14.06L59.47-13.85ZM60.93-13.37L60.80-13.63L60.93-13.72L61.15-13.63ZM72.97-13.16L72.76-13.29L72.76-13.72L73.19-13.63L73.19-13.37ZM69.23-12.47L69.10-12.69L68.97-12.94L68.89-13.29L69.10-13.16L69.23-12.94L69.32-12.60ZM58.09-12.38L57.96-12.69L57.88-12.94L58.09-13.03L58.09-12.81L58.31-12.60L58.44-12.38ZM71.51-12.81L71.38-13.03L71.60-13.03L71.60-12.94ZM72.41-12.60L72.28-12.69L72.28-12.94L72.50-12.81ZM74.78-12.04L74.91-12.26L74.65-12.60L74.43-12.47L74.35-12.38L74.09-12.47L74.22-12.81L74.43-12.81L74.65-12.94L74.99-12.81L75.25-12.38L75.12-12.13ZM56.98-12.38L56.72-12.47L56.63-12.69L56.85-12.81L56.98-12.60ZM62.87-12.38L62.52-12.47L62.31-12.47L62.18-12.81L62.52-12.81L62.65-12.60L62.87-12.47ZM70.22-12.13L70.13-12.47L70.35-12.47ZM57.41-11.91L57.41-12.26L57.62-12.26L57.62-11.91ZM70.91-11.91L71.04-12.26L71.38-11.91ZM58.31-11.57L57.96-11.78L58.31-12.13L58.57-12.04L58.65-11.91L58.57-11.57ZM72.50-11.57L72.50-11.78L72.63-12.04L72.84-11.91L72.76-11.70ZM69.57-10.66L69.45-10.79L69.66-11.01L70.00-11.22L70.22-11.22L70.13-11.57L70.00-11.70L70.22-11.78L70.48-11.35L70.56-11.09L70.82-10.88L70.82-10.79L70.48-10.88ZM73.66-11.57L73.66-11.78L73.87-11.78L73.87-11.57ZM55.38-11.01L55.26-11.35L55.60-11.35L55.81-11.44L56.16-11.70L56.29-11.70L56.37-11.57L56.16-11.22L56.03-11.09L55.81-11.01ZM60.37-11.35L60.37-11.70L60.59-11.44ZM59.81-11.22L59.56-11.35L59.81-11.44ZM62.31-9.98L62.05-10.11L61.62-10.54L61.62-11.01L61.83-11.09L62.31-11.09L62.18-10.79L62.05-10.54L62.31-10.32L62.52-10.11ZM57.19-10.19L56.98-10.32L56.72-10.45L56.85-10.66L57.41-10.66L57.53-10.88L57.88-10.88L58.09-10.79L58.31-10.66L58.31-10.45L58.09-10.45L57.88-10.32L57.62-10.19ZM65.15-9.20L64.89-9.29L64.80-9.42L64.67-9.63L64.89-9.63L65.02-9.85L65.23-10.19L65.49-10.19L65.83-10.45L65.92-10.66L66.05-10.79L66.26-10.88L66.48-10.54L66.39-10.45L66.26-10.19L66.05-10.11L65.83-9.98L65.70-9.76L66.13-9.63L66.26-9.85L66.61-10.11L66.82-10.11L66.95-9.85L66.74-9.85L66.39-9.63L66.26-9.55L65.83-9.29L65.58-9.20ZM72.07-10.11L71.94-10.32L71.81-10.45L71.81-10.79L72.15-10.66L72.28-10.45L72.28-10.19ZM68.33-9.20L68.07-9.29L67.98-9.63L67.73-9.85L67.64-10.11L67.51-10.32L67.73-10.66L68.07-10.45L68.20-10.32L68.33-10.54L68.54-10.54L68.54-10.32L68.41-10.11L68.33-9.98L68.33-9.55L68.41-9.42ZM74.43-10.11L74.35-10.19L74.35-10.32L74.56-10.45L74.78-10.45L74.99-10.32L74.99-10.19L74.78-10.19ZM70.22-9.76L70.13-10.11L70.22-10.32L70.35-10.11ZM70.82-9.85L70.82-10.11L70.91-10.19L71.17-10.19L71.51-10.32L71.60-10.11L71.51-9.85ZM75.81-8.73L75.68-8.86L75.81-9.20L76.02-9.85L76.24-9.85L76.24-9.42L76.15-9.20L76.02-8.94L76.02-8.86ZM66.95-9.20L66.74-9.29L66.82-9.42L66.95-9.42ZM74.09-8.60L73.87-8.73L73.75-8.94L73.66-9.20L73.66-9.42L73.87-9.29ZM76.71-8.94L76.58-9.20L76.71-9.20L76.84-8.94ZM61.83-8.60L61.71-8.73L61.62-8.94L61.71-9.07L61.96-8.94L61.96-8.73ZM57.53-8.73L57.53-8.94L57.75-8.94L57.62-8.73ZM71.04-8.73L71.04-8.94L71.38-8.73ZM70.13-8.51L69.92-8.73L70.13-8.73ZM71.94-7.83L71.72-8.04L71.94-8.26L72.28-8.51L72.41-8.60L72.50-8.39L72.41-8.39L72.15-8.04ZM64.46-7.83L64.24-7.96L64.33-8.17L64.54-8.04L64.67-7.83ZM76.93-7.83L76.84-8.04L76.93-8.04ZM59.81-7.70L59.56-7.83L59.56-7.96ZM76.02-7.61L75.90-7.83L76.15-7.96ZM60.24-6.45L60.16-6.79L60.24-6.92L60.46-7.01L60.72-7.01L60.93-7.35L60.93-7.48L61.06-7.70L61.28-7.83L61.40-7.70L61.28-7.27L61.06-7.01L60.72-6.92L60.59-6.71ZM64.89-7.14L65.02-7.48L65.23-7.61L65.49-7.70L65.58-7.48L65.49-7.35L65.36-7.14ZM63.00-7.27L62.74-7.35L62.65-7.61L62.87-7.48L63.08-7.48L63.30-7.35L63.30-7.27ZM58.78-7.01L58.57-7.14L58.65-7.35L58.78-7.48L59.13-7.48L59.13-7.27L59.00-7.14ZM62.74-6.45L62.39-6.71L62.31-6.92L62.52-7.01L63.08-6.71L63.00-6.45ZM68.89-5.89L68.41-6.02L68.33-6.24L68.07-6.45L68.07-6.71L68.33-6.92L68.54-6.71L68.41-6.45L68.67-6.11L68.89-6.11L69.10-6.24L69.23-6.11L68.97-6.02ZM61.96-5.89L61.83-6.11L61.71-6.36L61.62-6.45L61.62-6.79L61.96-6.45L62.05-6.24L62.05-6.02ZM77.27-6.24L77.06-6.36L77.19-6.58L77.27-6.45ZM70.69-6.11L70.69-6.36L70.82-6.36ZM75.47-6.02L75.47-6.24L75.68-6.02ZM75.81-5.33L75.90-5.55L76.02-5.33ZM77.62-5.20L77.40-5.33L77.40-5.55L77.74-5.42ZM60.37-4.99L60.24-5.20L60.46-5.33L60.59-5.12ZM76.02-4.43L75.81-4.52L75.90-4.86L76.24-5.12L76.58-5.12L76.37-4.77ZM59.21-4.52L59.13-4.77L59.00-4.86L59.21-4.99L59.34-4.86L59.34-4.64ZM77.83-3.96L77.83-4.43L77.96-4.64L77.96-4.86L78.09-4.99L78.43-4.64L78.43-4.30L78.09-3.96ZM74.99-3.61L74.91-3.87L74.78-3.96L74.91-4.08L75.12-3.96L75.12-3.74ZM71.51-2.92L71.51-3.27L71.72-3.40L71.81-3.74L72.07-3.87L72.07-3.53L71.81-3.27L71.72-3.05ZM76.37-3.27L76.37-3.53L76.58-3.61L76.71-3.61L76.84-3.40L76.84-3.27ZM55.73-3.05L55.73-3.40L56.03-3.27ZM77.96-2.71L77.49-2.84L77.27-3.18L77.40-3.40L77.49-3.18L77.74-3.05L78.09-2.92ZM53.11 1.94L54.18 2.06L54.70 2.06L55.17 2.02L55.73 2.02L56.20 1.98L56.76 1.98L57.32 2.02L57.79 2.06L58.27 1.98L59.43 2.11L59.94 2.02L60.42 1.81L61.06 1.63L61.45 1.42L61.79 1.12L62.26 0.60L62.48 0.22L62.65-0.73L62.78-1.29L63.00-1.63L63.25-2.19L64.07-2.06L64.67-2.11L65.19-2.15L65.62-2.06L66.26-2.11L66.69-2.15L67.25-2.19L68.33-2.11L68.63-2.67L68.67-3.14L67.94-3.31L67.55-3.23L67.04-3.31L66.35-3.23L65.96-3.27L65.36-3.31L64.93-3.31L64.29-3.23L63.81-3.18L63.25-3.31L62.39-3.23L62.09-2.75L61.92-2.19L61.79-1.68L61.53-0.56L61.19-0.04L60.89 0.22L60.54 0.52L60.07 0.77L59.13 0.90L57.06 0.90L56.46 0.99L55.90 0.99L55.43 0.90L54.95 0.86L54.31 0.95L53.88 0.86L53.32 0.90L52.85 0.86L52.33 1.51L52.63 1.89ZM77.40-1.94L76.93-2.02L76.71-2.28L76.84-2.49L77.19-2.37L77.27-2.28L77.40-2.02ZM74.56-1.68L74.35-1.94L74.56-2.02L74.78-1.81Z" fill="#ffffff" fontsize="43" transform="matrix(1,0,0,1,225.495,348.72999999999996)"></path></svg>